<?xml version="1.0" encoding="UTF-8" standalone="no"?>
<svg
   xmlns:dc="http://purl.org/dc/elements/1.1/"
   xmlns:cc="http://creativecommons.org/ns#"
   xmlns:rdf="http://www.w3.org/1999/02/22-rdf-syntax-ns#"
   xmlns:svg="http://www.w3.org/2000/svg"
   xmlns="http://www.w3.org/2000/svg"
   xmlns:sodipodi="http://sodipodi.sourceforge.net/DTD/sodipodi-0.dtd"
   xmlns:inkscape="http://www.inkscape.org/namespaces/inkscape"
   width="19.460407mm"
   height="23.457851mm"
   version="1.1"
   viewBox="0 0 19.460407 23.457851"
   id="svg4"
   sodipodi:docname="arrow.svg"
   inkscape:version="1.0.1 (3bc2e813f5, 2020-09-07)">
  <metadata
     id="metadata10">
    <rdf:RDF>
      <cc:Work
         rdf:about="">
        <dc:format>image/svg+xml</dc:format>
        <dc:type
           rdf:resource="http://purl.org/dc/dcmitype/StillImage" />
      </cc:Work>
    </rdf:RDF>
  </metadata>
  <defs
     id="defs8" />
  <sodipodi:namedview
     pagecolor="#ffffff"
     bordercolor="#666666"
     borderopacity="1"
     objecttolerance="10"
     gridtolerance="10"
     guidetolerance="10"
     inkscape:pageopacity="0"
     inkscape:pageshadow="2"
     inkscape:window-width="687"
     inkscape:window-height="480"
     id="namedview6"
     showgrid="false"
     inkscape:zoom="0.8979798"
     inkscape:cx="33.624467"
     inkscape:cy="45.607258"
     inkscape:window-x="0"
     inkscape:window-y="0"
     inkscape:window-maximized="0"
     inkscape:current-layer="svg4" />
  <path
     d="m 9.2764732,23.41692 c -0.29414,-0.0649 -0.52657,-0.16295 -0.74294,-0.31353 -0.10882,-0.0757 -0.52879,-0.46541 -0.93326,-0.86596 -0.40447,-0.40054 -1.9134,-1.8895 -3.3533,-3.3088 -3.97010001,-3.9135 -3.86580001,-3.8065 -4.02190001,-4.1274 -0.29877,-0.61424 -0.30008,-1.2039 -0.004,-1.8087 0.10491,-0.21432 0.18487,-0.32189 0.38928,-0.52371 0.44254001,-0.43693 0.87235001,-0.60393 1.49180001,-0.57961 0.41733,0.0164 0.68245,0.095 0.99199,0.29416 0.14164,0.0911 0.87175,0.79217 2.3777,2.283 1.1953,1.1833 2.1788,2.1459 2.1856,2.1391 0.007,-0.007 0.0221,-3.3249 0.0339,-7.3736 0.0177,-6.024 0.0295,-7.4045 0.065,-7.5992 0.13039,-0.71389 0.7238,-1.3552 1.4567,-1.5744 0.25979,-0.0777 0.7874698,-0.0777 1.0470998,4e-5 0.67447,0.20178 1.1971,0.70621 1.4174,1.368 l 0.074,0.22212 -0.0128,7.4331 c -0.007,4.0882 -0.002,7.4331 0.0119,7.4331 0.0136,0 0.84038,-0.80484 1.8373,-1.7885 2.8561,-2.8182 2.7649,-2.7378 3.304,-2.9083 0.32993,-0.10432 0.80004,-0.0995 1.1423,0.0117 0.35096,0.11399 0.6202,0.28275 0.86815,0.54412 0.38076,0.40138 0.55554,0.83378 0.55798,1.3804 0.003,0.62094 -0.18704,1.0281 -0.74023,1.5881 -0.48472,0.49063 -7.0886,6.9939 -7.5283,7.4137 -0.29921,0.28561 -0.4194,0.37713 -0.63463,0.48323 -0.41964,0.20686 -0.8675098,0.26906 -1.2808998,0.1779 z"
     fill="#777"
     stroke-width="0.031732"
     id="path2" />
</svg>
