<?xml version="1.0" encoding="UTF-8" standalone="no"?>
<svg
   xmlns:dc="http://purl.org/dc/elements/1.1/"
   xmlns:cc="http://creativecommons.org/ns#"
   xmlns:rdf="http://www.w3.org/1999/02/22-rdf-syntax-ns#"
   xmlns:svg="http://www.w3.org/2000/svg"
   xmlns="http://www.w3.org/2000/svg"
   xmlns:sodipodi="http://sodipodi.sourceforge.net/DTD/sodipodi-0.dtd"
   xmlns:inkscape="http://www.inkscape.org/namespaces/inkscape"
   version="1.1"
   viewBox="0 0 32.462364 11.993553"
   id="svg4"
   sodipodi:docname="bucket.svg"
   width="32.462364"
   height="11.993553"
   inkscape:version="1.0.1 (3bc2e813f5, 2020-09-07)">
  <metadata
     id="metadata10">
    <rdf:RDF>
      <cc:Work
         rdf:about="">
        <dc:format>image/svg+xml</dc:format>
        <dc:type
           rdf:resource="http://purl.org/dc/dcmitype/StillImage" />
      </cc:Work>
    </rdf:RDF>
  </metadata>
  <defs
     id="defs8" />
  <sodipodi:namedview
     pagecolor="#ffffff"
     bordercolor="#666666"
     borderopacity="1"
     objecttolerance="10"
     gridtolerance="10"
     guidetolerance="10"
     inkscape:pageopacity="0"
     inkscape:pageshadow="2"
     inkscape:window-width="1327"
     inkscape:window-height="1025"
     id="namedview6"
     showgrid="false"
     inkscape:zoom="3.3939394"
     inkscape:cx="15.397678"
     inkscape:cy="6.3346092"
     inkscape:window-x="2153"
     inkscape:window-y="291"
     inkscape:window-maximized="0"
     inkscape:current-layer="svg4" />
  <path
     d="m 8.4596781,11.984609 -6.854,-0.0159 -0.23147,-0.0858 c -0.68135998,-0.25263 -1.17129998,-0.7906 -1.33679998,-1.468 -0.0494,-0.2021 -0.0501,-8.3621998 -7.49e-4,-8.6729998 0.07377,-0.46448 0.24171,-0.79111001 0.58422,-1.13620001 0.20132,-0.20284 0.31181,-0.28481 0.52472998,-0.38929 0.49773,-0.24424 1.0134,-0.28213 1.5209,-0.11175 0.61277,0.2057 1.0672,0.65639 1.2975,1.28680001 l 0.08502,0.23275 -0.0013,6.3305 H 28.400728 l 0.009,-3.1018 0.009,-3.1018 0.0883,-0.26066 c 0.17251,-0.50933001 0.53729,-0.93711001 1.0078,-1.18190001 0.30637,-0.1594 0.57026,-0.22227 0.93535,-0.22287 0.56902,-9.3e-4 0.99216,0.1792 1.4114,0.60088 0.3032,0.30495 0.43749,0.53903001 0.54067,0.94249001 0.0595,0.23266 0.0621,0.35982 0.0594,2.9116 -0.002,1.4676 -0.0136,3.3609 -0.0269,4.2073 l -0.0241,1.5389998 -0.083,0.25385 c -0.23384,0.71494 -0.75691,1.2043 -1.4762,1.3811 -0.23423,0.0576 -0.52555,0.0601 -7.8905,0.0692 -4.206,0.005 -10.732,0.002 -14.5009989,-0.006 z"
     fill="#777"
     stroke-width="0.031732"
     id="path2" />
</svg>
