<?xml version="1.0" encoding="UTF-8" standalone="no"?>
<svg
   xmlns:dc="http://purl.org/dc/elements/1.1/"
   xmlns:cc="http://creativecommons.org/ns#"
   xmlns:rdf="http://www.w3.org/1999/02/22-rdf-syntax-ns#"
   xmlns:svg="http://www.w3.org/2000/svg"
   xmlns="http://www.w3.org/2000/svg"
   xmlns:sodipodi="http://sodipodi.sourceforge.net/DTD/sodipodi-0.dtd"
   xmlns:inkscape="http://www.inkscape.org/namespaces/inkscape"
   id="Layer_1"
   data-name="Layer 1"
   viewBox="0 0 122.88 120.89"
   version="1.1"
   sodipodi:docname="download-file.white.svg"
   inkscape:version="1.0.1 (3bc2e813f5, 2020-09-07)">
  <metadata
     id="metadata11">
    <rdf:RDF>
      <cc:Work
         rdf:about="">
        <dc:format>image/svg+xml</dc:format>
        <dc:type
           rdf:resource="http://purl.org/dc/dcmitype/StillImage" />
        <dc:title>download-file</dc:title>
      </cc:Work>
    </rdf:RDF>
  </metadata>
  <defs
     id="defs9" />
  <sodipodi:namedview
     pagecolor="#ffffff"
     bordercolor="#666666"
     borderopacity="1"
     objecttolerance="10"
     gridtolerance="10"
     guidetolerance="10"
     inkscape:pageopacity="0"
     inkscape:pageshadow="2"
     inkscape:window-width="1066"
     inkscape:window-height="858"
     id="namedview7"
     showgrid="false"
     inkscape:zoom="2.9479843"
     inkscape:cx="237.01805"
     inkscape:cy="92.150091"
     inkscape:window-x="2485"
     inkscape:window-y="443"
     inkscape:window-maximized="0"
     inkscape:current-layer="Layer_1" />
  <title
     id="title2">download-file</title>
  <path
     d="M84.58,47a7.71,7.71,0,1,1,10.8,11L66.09,86.88a7.72,7.72,0,0,1-10.82,0L26.4,58.37a7.71,7.71,0,1,1,10.81-11L53.1,63.12l.16-55.47a7.72,7.72,0,0,1,15.43.13l-.15,55L84.58,47ZM0,113.48.1,83.3a7.72,7.72,0,1,1,15.43.14l-.07,22q46,.09,91.91,0l.07-22.12a7.72,7.72,0,1,1,15.44.14l-.1,30h-.09a7.71,7.71,0,0,1-7.64,7.36q-53.73.1-107.38,0A7.7,7.7,0,0,1,0,113.48Z"
     id="path4" />
  <path
     style="fill:#ffffff;stroke-width:0.119931"
     d=""
     id="path13" />
  <path
     style="fill:#ffffff;stroke-width:0.119931"
     d="M 59.221283,88.87069 C 58.109569,88.625544 57.231078,88.254818 56.413319,87.685721 56.002017,87.399487 54.414738,85.926672 52.88603,84.412798 51.357322,82.898925 45.654139,77.271356 40.21229,71.907088 25.207186,57.115904 25.601245,57.520298 25.011281,56.307396 c -1.129224,-2.321565 -1.134178,-4.550145 -0.0152,-6.836042 0.396524,-0.810033 0.698717,-1.216578 1.47131,-1.979374 1.672598,-1.651389 3.297072,-2.282572 5.638122,-2.190667 1.577328,0.06192 2.57934,0.359056 3.749252,1.111789 0.53534,0.344443 3.294809,2.994024 8.986447,8.628584 4.51763,4.472325 8.234877,8.110497 8.260548,8.084824 0.02567,-0.02567 0.08339,-12.566608 0.128254,-27.868746 0.06676,-22.767775 0.111421,-27.9854734 0.245856,-28.7215488 0.492785,-2.6981525 2.735592,-5.1221361 5.505549,-5.95029258 0.981869,-0.29355744 2.976247,-0.29348669 3.957709,1.4032e-4 2.549171,0.76264426 4.524516,2.66916506 5.357258,5.17060366 l 0.279478,0.8395139 -0.04824,28.0937325 c -0.02653,15.451553 -0.0062,28.093733 0.04514,28.093733 0.05136,0 3.176265,-3.041925 6.944242,-6.759831 10.794811,-10.651367 10.449921,-10.347783 12.487604,-10.992017 1.247006,-0.394253 3.023765,-0.37609 4.3175,0.04414 1.326461,0.430858 2.344078,1.068661 3.281211,2.056544 1.439097,1.517028 2.099695,3.151288 2.108891,5.217209 0.01045,2.346854 -0.706905,3.88584 -2.797709,6.002118 -1.832009,1.85433 -26.791435,26.433751 -28.453312,28.020112 -1.130874,1.079488 -1.585141,1.425383 -2.398611,1.826391 -1.58603,0.781848 -3.278762,1.016943 -4.841304,0.672382 z"
     id="path15" />
  <path
     style="fill:#ffffff;stroke-width:0.119931"
     d="m 32.083889,120.75239 -25.9050001,-0.06 -0.8748387,-0.32437 C 2.7288124,119.41321 0.87718246,117.37994 0.2514327,114.81978 0.0647361,114.05594 0.06207419,83.214429 0.24860349,82.039916 0.52740466,80.284398 1.1621655,79.049899 2.4566613,77.745627 c 0.7608735,-0.766619 1.1784806,-1.076435 1.9832345,-1.471329 1.8811823,-0.923099 3.8301471,-1.066297 5.7484132,-0.422356 2.315967,0.777445 4.033544,2.480854 4.903889,4.86344 l 0.321344,0.879682 -0.0024,11.963073 -0.0024,11.963073 h 46.02126 46.021258 l 0.0345,-11.723212 0.0344,-11.723212 0.33368,-0.98517 c 0.65201,-1.925008 2.0307,-3.541845 3.80911,-4.467074 1.15795,-0.602436 2.1553,-0.840076 3.53518,-0.842338 2.15065,-0.0035 3.7499,0.677319 5.33449,2.27104 1.14598,1.152569 1.65352,2.037302 2.04351,3.562174 0.22491,0.879336 0.23471,1.359937 0.22457,11.004458 -0.006,5.546731 -0.0516,12.702454 -0.10169,15.901594 l -0.0911,5.81664 -0.31381,0.95944 c -0.88383,2.70215 -2.86077,4.5516 -5.57956,5.21975 -0.88526,0.21756 -1.9863,0.22721 -29.822458,0.26148 -15.896797,0.0196 -40.560515,0.009 -54.808265,-0.0244 z"
     id="path17" />
</svg>
